<svg width="45" height="45" viewBox="0 0 45 45" fill="none" xmlns="http://www.w3.org/2000/svg">
<path fill-rule="evenodd" clip-rule="evenodd" d="M29.4095 7.18396C31.0499 5.28273 32.1557 2.63471 31.8531 0C29.4891 0.09 26.6292 1.51008 24.9342 3.40906C23.4121 5.09429 22.0834 7.78702 22.4406 10.37C25.0775 10.5657 27.7691 9.08741 29.4095 7.18396ZM35.3227 23.9062C35.3887 30.7169 41.5567 32.9825 41.625 33.0117C41.5749 33.1715 40.6398 36.2399 38.376 39.4124C36.4171 42.1528 34.3853 44.8822 31.1841 44.9407C28.0398 44.9969 27.0274 43.1543 23.4303 43.1543C19.8355 43.1543 18.7115 44.882 15.7356 44.9967C12.6459 45.107 10.2911 42.0317 8.31847 39.3003C4.28228 33.7136 1.1994 23.5127 5.34025 16.6278C7.39702 13.2101 11.0714 11.0425 15.0621 10.9885C18.095 10.9323 20.9594 12.9441 22.8137 12.9441C24.668 12.9441 28.149 10.5254 31.8075 10.8809C33.3388 10.9416 37.6389 11.4724 40.3987 15.3446C40.1757 15.4774 35.2681 18.2138 35.3227 23.9062Z" fill="black"/>
</svg>
