<svg width="39" height="37" viewBox="0 0 39 37" fill="none" xmlns="http://www.w3.org/2000/svg">
<path fill-rule="evenodd" clip-rule="evenodd" d="M7.97103 18.4765C7.97103 17.2764 8.18094 16.1258 8.55558 15.0466L1.99807 10.2914C0.72005 12.7555 0 15.532 0 18.4765C0 21.4185 0.719164 24.1934 1.99542 26.6558L8.54938 21.8913C8.17828 20.8172 7.97103 19.6708 7.97103 18.4765Z" fill="#FBBC05"/>
<path fill-rule="evenodd" clip-rule="evenodd" d="M19.4848 7.55859C22.2304 7.55859 24.7102 8.48242 26.6587 9.99414L32.327 4.61914C28.8729 1.76367 24.4445 0 19.4848 0C11.7848 0 5.16702 4.18158 1.99809 10.2914L8.5556 15.0466C10.0666 10.6912 14.3736 7.55859 19.4848 7.55859Z" fill="#EB4335"/>
<path fill-rule="evenodd" clip-rule="evenodd" d="M19.4848 29.3945C14.3736 29.3945 10.0666 26.2619 8.5556 21.9065L1.99809 26.6608C5.16702 32.7715 11.7848 36.9531 19.4848 36.9531C24.2373 36.9531 28.7746 35.3507 32.18 32.3483L25.9555 27.7787C24.1992 28.8293 21.9877 29.3945 19.4848 29.3945Z" fill="#34A853"/>
<path fill-rule="evenodd" clip-rule="evenodd" d="M38.0839 18.4765C38.0839 17.3847 37.9068 16.209 37.6411 15.1172H19.4848V22.2558H29.9357C29.4132 24.6897 27.9908 26.5609 25.9555 27.7786L32.18 32.3482C35.7573 29.1955 38.0839 24.4991 38.0839 18.4765Z" fill="#4285F4"/>
</svg>
